<svg xmlns="http://www.w3.org/2000/svg" viewBox="0 0 128 256" enable-background="new 0 0 128 256"><path fill="#404042" d="M74.1 39.7c-3.2-1.4-6.7-2.1-10.2-2.1-3.6 0-7 .7-10.2 2.1-3.1 1.3-5.9 3.2-8.4 5.6s-4.3 5.2-5.6 8.4c-1.4 3.2-2.1 6.7-2.1 10.2 0 3.6.7 7 2.1 10.2 1.3 3.1 3.2 5.9 5.6 8.4 2.4 2.4 5.2 4.3 8.4 5.6.9.4 1.8.7 2.7 1v-4.8c0-2.5.8-4.3 2.5-5.4-1.1-.1-2-.2-2.9-.4-.9-.2-1.8-.4-2.8-.8-1-.3-1.9-.8-2.7-1.2-.8-.5-1.5-1.1-2.3-1.9-.7-.8-1.3-1.6-1.8-2.6s-.9-2.1-1.2-3.5c-.3-1.4-.4-2.8-.4-4.5 0-3.2 1-5.9 3.1-8.1-.9-2.4-.8-5.1.3-8 .1 0 .2 0 .3-.1h1c.5 0 1 .1 1.6.3.6.2 1.4.5 2.3 1 1 .5 2 1.1 3.1 1.8 2.4-.7 4.9-1 7.5-1 2.6 0 5.1.3 7.6 1 1.7-1.2 3.3-2 4.6-2.5 1.4-.5 2.3-.7 2.9-.7l.8.1c1.1 2.9 1.2 5.5.3 8 2.1 2.2 3.1 4.9 3.1 8.1 0 1.6-.1 3.1-.4 4.5-.3 1.4-.7 2.5-1.2 3.5s-1.1 1.8-1.8 2.6-1.5 1.4-2.3 1.9c-.8.5-1.7.9-2.7 1.2s-1.9.6-2.8.8c-.9.2-1.9.3-2.9.4 1.7 1.2 2.5 3 2.5 5.4v4.8l2.4-.9c3.1-1.3 5.9-3.2 8.4-5.6 2.4-2.4 4.3-5.2 5.6-8.4 1.4-3.2 2.1-6.7 2.1-10.2 0-3.6-.7-7-2.1-10.2-1.3-3.1-3.2-5.9-5.6-8.4-2.4-2.4-5.2-4.3-8.4-5.6zM102.2 0h-76.6c-14.2 0-25.6 11.4-25.6 25.6v76.7c0 14.1 11.4 25.6 25.6 25.6h76.7c14.1 0 25.6-11.4 25.6-25.6v-76.7c-.1-14.2-11.6-25.6-25.7-25.6zm-38.3 95.2c-17.3 0-31.3-14-31.3-31.3s14-31.3 31.3-31.3 31.3 14 31.3 31.3-14 31.3-31.3 31.3z"/><path fill="#90C9EE" d="M74.1 167.7c-3.2-1.4-6.7-2.1-10.2-2.1-3.6 0-7 .7-10.2 2.1-3.1 1.3-5.9 3.2-8.4 5.6-2.4 2.4-4.3 5.2-5.6 8.4-1.4 3.2-2.1 6.7-2.1 10.2 0 3.6.7 7 2.1 10.2 1.3 3.1 3.2 5.9 5.6 8.4 2.4 2.4 5.2 4.3 8.4 5.6.9.4 1.8.7 2.7 1v-4.8c0-2.5.8-4.3 2.5-5.4-1.1-.1-2-.2-2.9-.4-.9-.2-1.8-.4-2.8-.8-1-.3-1.9-.8-2.7-1.2-.8-.5-1.5-1.1-2.3-1.9-.7-.8-1.3-1.6-1.8-2.6s-.9-2.1-1.2-3.5c-.3-1.4-.4-2.8-.4-4.5 0-3.2 1-5.9 3.1-8.1-.9-2.4-.8-5.1.3-8 .1 0 .2 0 .3-.1h1c.5 0 1 .1 1.6.3.6.2 1.4.5 2.3 1 1 .5 2 1.1 3.1 1.8 2.4-.7 4.9-1 7.5-1 2.6 0 5.1.3 7.6 1 1.7-1.2 3.3-2 4.6-2.5 1.4-.5 2.3-.7 2.9-.7l.8.1c1.1 2.9 1.2 5.5.3 8 2.1 2.2 3.1 4.9 3.1 8.1 0 1.6-.1 3.1-.4 4.5-.3 1.4-.7 2.5-1.2 3.5s-1.1 1.8-1.8 2.6-1.5 1.4-2.3 1.9c-.8.5-1.7.9-2.7 1.2-1 .3-1.9.6-2.8.8-.9.2-1.9.3-2.9.4 1.7 1.2 2.5 3 2.5 5.4v4.7l2.4-.9c3.1-1.3 5.9-3.2 8.4-5.6 2.4-2.4 4.3-5.2 5.6-8.4 1.4-3.2 2.1-6.7 2.1-10.2s-.7-7-2.1-10.2c-1.3-3.1-3.2-5.9-5.6-8.4-2.4-2.3-5.2-4.2-8.4-5.5zM102.2 128h-76.6c-14.2 0-25.6 11.4-25.6 25.6v76.7c0 14.1 11.4 25.6 25.6 25.6h76.7c14.1 0 25.6-11.4 25.6-25.6v-76.7c-.1-14.2-11.6-25.6-25.7-25.6zm-38.3 95.2c-17.3 0-31.3-14-31.3-31.3s14-31.3 31.3-31.3 31.3 14 31.3 31.3-14 31.3-31.3 31.3z"/></svg>